<mxfile host="65bd71144e">
    <diagram id="csxF_YuhOuWt64zoYa5P" name="Page-1">
        <mxGraphModel dx="1512" dy="677" grid="1" gridSize="10" guides="1" tooltips="1" connect="1" arrows="1" fold="1" page="1" pageScale="1" pageWidth="850" pageHeight="1100" math="0" shadow="0">
            <root>
                <mxCell id="0"/>
                <mxCell id="1" parent="0"/>
                <mxCell id="4" value="" style="rounded=0;whiteSpace=wrap;html=1;" vertex="1" parent="1">
                    <mxGeometry x="40" y="40" width="770" height="470" as="geometry"/>
                </mxCell>
                <mxCell id="5" value="CHARACTER BANNER" style="rounded=1;whiteSpace=wrap;html=1;" vertex="1" parent="1">
                    <mxGeometry x="100" y="60" width="650" height="160" as="geometry"/>
                </mxCell>
                <mxCell id="6" value="Combo Title" style="rounded=1;whiteSpace=wrap;html=1;" vertex="1" parent="1">
                    <mxGeometry x="100" y="330" width="170" height="40" as="geometry"/>
                </mxCell>
                <mxCell id="7" value="buttons window" style="rounded=1;whiteSpace=wrap;html=1;" vertex="1" parent="1">
                    <mxGeometry x="100" y="260" width="650" height="50" as="geometry"/>
                </mxCell>
                <mxCell id="8" value="Combo window" style="rounded=1;whiteSpace=wrap;html=1;" vertex="1" parent="1">
                    <mxGeometry x="100" y="370" width="650" height="50" as="geometry"/>
                </mxCell>
            </root>
        </mxGraphModel>
    </diagram>
</mxfile>